<svg width="72" height="46" viewBox="0 0 72 46" fill="none" xmlns="http://www.w3.org/2000/svg">
<g clip-path="url(#clip0_9546_204052)">
<rect width="72" height="46" rx="4" fill="#F4F5F6"/>
<path d="M-88.9102 63H186V-17H-47.0002L-88.9102 63Z" fill="#E7EBEE"/>
<path d="M147.12 -15.67C147.172 -15.7674 147.243 -15.8534 147.329 -15.9229C147.415 -15.9924 147.514 -16.0441 147.62 -16.0748C147.727 -16.1056 147.838 -16.1148 147.948 -16.1019C148.058 -16.0891 148.164 -16.0544 148.26 -16L186 5.15V-0.59L156.69 -17H142.15L132.55 0.440001C132.498 0.536097 132.427 0.620905 132.342 0.68955C132.256 0.758196 132.159 0.809324 132.054 0.839993C131.949 0.870661 131.838 0.880266 131.73 0.868254C131.621 0.856241 131.516 0.822851 131.42 0.77L99.6899 -17H83.7699L74.4899 -0.16C74.4378 -0.0637665 74.3669 0.0210514 74.2814 0.0894547C74.196 0.157858 74.0977 0.208464 73.9924 0.238287C73.8871 0.26811 73.7769 0.276548 73.6682 0.263103C73.5596 0.249659 73.4548 0.214602 73.3599 0.16L71.8299 -0.690001C71.6378 -0.797529 71.4956 -0.976187 71.4339 -1.18752C71.3721 -1.39886 71.3959 -1.62598 71.4999 -1.82L79.8499 -17H74.1499L67.1499 -4.27C67.0407 -4.07694 66.8595 -3.93494 66.6459 -3.87499C66.4323 -3.81503 66.2037 -3.842 66.0099 -3.95L42.7099 -17H32.4699L63.6099 0.440001C63.802 0.547529 63.9443 0.726187 64.006 0.937523C64.0677 1.14886 64.044 1.37598 63.9399 1.57L52.7799 21.85C52.7268 21.9466 52.655 22.0316 52.5686 22.1001C52.4823 22.1686 52.3831 22.2192 52.277 22.249C52.1709 22.2788 52.0599 22.2872 51.9505 22.2736C51.8411 22.26 51.7355 22.2248 51.6399 22.17L15.4099 1.88C15.315 1.82783 15.2314 1.75737 15.1639 1.6727C15.0963 1.58803 15.0462 1.49083 15.0165 1.38669C14.9867 1.28256 14.9779 1.17356 14.9905 1.066C15.0031 0.958439 15.0369 0.854435 15.0899 0.76L24.8499 -17H19.1499L10.7299 -1.7C10.6224 -1.50523 10.4419 -1.36109 10.2282 -1.29922C10.0145 -1.23735 9.7849 -1.2628 9.58992 -1.37L-18.3101 -17H-28.5401L7.19992 3C7.39032 3.1092 7.53042 3.28859 7.59023 3.49978C7.65003 3.71097 7.62479 3.93718 7.51992 4.13L-3.16008 23.56C-3.26765 23.7548 -3.4481 23.8989 -3.66183 23.9608C-3.87556 24.0227 -4.1051 23.9972 -4.30008 23.89L-45.1201 1C-45.3105 0.890797 -45.4506 0.711407 -45.5104 0.500217C-45.5702 0.289028 -45.5449 0.0628204 -45.4401 -0.129999L-36.1501 -17H-41.7301L-61.0001 18L-85.8301 63H-80.1501L-75.0001 53.69C-74.8908 53.4969 -74.7096 53.3549 -74.496 53.295C-74.2825 53.235 -74.0538 53.262 -73.8601 53.37L-56.6901 63H-46.4601L-71.4601 49C-71.5563 48.9479 -71.6411 48.877 -71.7095 48.7915C-71.7779 48.7061 -71.8285 48.6078 -71.8584 48.5025C-71.8882 48.3972 -71.8966 48.2869 -71.8832 48.1783C-71.8697 48.0697 -71.8347 47.9649 -71.7801 47.87L-62.2801 30.59C-62.2269 30.4934 -62.1551 30.4084 -62.0688 30.3399C-61.9824 30.2714 -61.8833 30.2207 -61.7772 30.191C-61.6711 30.1612 -61.5601 30.1528 -61.4507 30.1664C-61.3413 30.18 -61.2357 30.2152 -61.1401 30.27L-20.3601 53.11C-20.2618 53.1587 -20.1742 53.2266 -20.1027 53.3097C-20.0311 53.3928 -19.9769 53.4895 -19.9433 53.5939C-19.9098 53.6983 -19.8975 53.8084 -19.9072 53.9177C-19.917 54.027 -19.9485 54.1332 -20.0001 54.23L-24.8501 63H-19.1501L-15.6801 56.69C-15.5725 56.4952 -15.3921 56.3511 -15.1783 56.2892C-14.9646 56.2273 -14.7351 56.2528 -14.5401 56.36L-2.69008 63H7.53992L-12.1401 52C-12.3305 51.8908 -12.4706 51.7114 -12.5304 51.5002C-12.5902 51.289 -12.5649 51.0628 -12.4601 50.87L-2.02007 31.87C-1.91251 31.6752 -1.73206 31.5311 -1.51833 31.4692C-1.3046 31.4073 -1.07505 31.4328 -0.880074 31.54L35.3499 51.83C35.5403 51.9392 35.6804 52.1186 35.7402 52.3298C35.8 52.541 35.7748 52.7672 35.6699 52.96L30.1499 62.96H35.8499L39.9999 55.4C40.0531 55.3034 40.1249 55.2184 40.2112 55.1499C40.2976 55.0814 40.3967 55.0307 40.5028 55.001C40.6089 54.9712 40.7199 54.9628 40.8293 54.9764C40.9387 54.99 41.0443 55.0252 41.1399 55.08L42.6199 55.91C42.8123 56.0069 42.9595 56.1747 43.0304 56.3781C43.1013 56.5815 43.0904 56.8045 42.9999 57L39.7099 63H45.4199L47.3599 59.49C47.4122 59.3939 47.483 59.3091 47.5682 59.2404C47.6534 59.1718 47.7513 59.1207 47.8563 59.09C47.9613 59.0593 48.0714 59.0497 48.1801 59.0617C48.2888 59.0738 48.3941 59.1072 48.4899 59.16L55.3099 63H65.5399L50.8699 54.78C50.6778 54.6725 50.5356 54.4938 50.4739 54.2825C50.4121 54.0711 50.4359 53.844 50.5399 53.65L61.2399 34.24C61.2931 34.1434 61.3649 34.0584 61.4512 33.9899C61.5376 33.9214 61.6367 33.8708 61.7428 33.841C61.849 33.8112 61.9599 33.8028 62.0693 33.8164C62.1787 33.83 62.2843 33.8652 62.3799 33.92L101.23 55.68C101.326 55.7312 101.41 55.8011 101.479 55.8856C101.547 55.9702 101.598 56.0676 101.627 56.1721C101.657 56.2766 101.666 56.3861 101.653 56.4939C101.639 56.6018 101.604 56.7059 101.55 56.8L98.1499 63H103.85L105.91 59.26C106.018 59.0652 106.198 58.9211 106.412 58.8592C106.625 58.7973 106.855 58.8228 107.05 58.93L114.31 63H124.54L109.45 54.54C109.354 54.4887 109.27 54.4189 109.201 54.3346C109.133 54.2503 109.081 54.1532 109.051 54.049C109.02 53.9448 109.01 53.8355 109.022 53.7276C109.034 53.6196 109.067 53.515 109.12 53.42L120.28 33.13C120.333 33.0334 120.405 32.9484 120.491 32.8799C120.578 32.8114 120.677 32.7607 120.783 32.731C120.889 32.7012 121 32.6928 121.109 32.7064C121.219 32.72 121.324 32.7552 121.42 32.81L161.47 55.24C161.565 55.2931 161.649 55.3645 161.717 55.4501C161.784 55.5357 161.834 55.6337 161.864 55.7387C161.894 55.8436 161.903 55.9534 161.89 56.0617C161.877 56.1701 161.843 56.2748 161.79 56.37L158.15 63H163.85L166.15 58.82C166.203 58.7234 166.275 58.6384 166.361 58.5699C166.448 58.5014 166.547 58.4507 166.653 58.421C166.759 58.3912 166.87 58.3828 166.979 58.3964C167.089 58.41 167.194 58.4452 167.29 58.5L175.29 63H185.52L169.65 54.11C169.458 54.0025 169.316 53.8238 169.254 53.6125C169.192 53.4011 169.216 53.174 169.32 52.98L179.53 34.43C179.582 34.3326 179.653 34.2466 179.739 34.1771C179.825 34.1076 179.924 34.0559 180.03 34.0252C180.137 33.9944 180.248 33.9852 180.358 33.9981C180.468 34.0109 180.574 34.0456 180.67 34.1L185.96 37.1V31.33L183.06 29.71C182.87 29.6008 182.729 29.4214 182.67 29.2102C182.61 28.999 182.635 28.7728 182.74 28.58L186 22.73V12.36L178.42 26.13C178.368 26.2261 178.297 26.3109 178.212 26.3796C178.126 26.4482 178.029 26.4993 177.924 26.53C177.819 26.5607 177.708 26.5703 177.6 26.5583C177.491 26.5462 177.386 26.5128 177.29 26.46L137.23 4C137.135 3.94783 137.051 3.87737 136.984 3.7927C136.916 3.70803 136.866 3.61083 136.837 3.50669C136.807 3.40256 136.798 3.29356 136.811 3.186C136.823 3.07844 136.857 2.97443 136.91 2.88L147.12 -15.67ZM-6.38007 29.4L-16.8201 48.4C-16.9276 48.5948 -17.1081 48.7389 -17.3218 48.8008C-17.5356 48.8626 -17.7651 48.8372 -17.9601 48.73L-58.7801 25.86C-58.8753 25.8069 -58.9592 25.7355 -59.0268 25.6499C-59.0945 25.5643 -59.1446 25.4663 -59.1743 25.3613C-59.204 25.2564 -59.2128 25.1466 -59.2 25.0383C-59.1873 24.93 -59.1533 24.8252 -59.1001 24.73L-48.6501 5.73C-48.5979 5.63377 -48.527 5.54895 -48.4416 5.48055C-48.3561 5.41214 -48.2579 5.36154 -48.1526 5.33171C-48.0472 5.30189 -47.937 5.29345 -47.8284 5.3069C-47.7198 5.32034 -47.6149 5.3554 -47.5201 5.41L-6.70007 28.27C-6.60482 28.3231 -6.52098 28.3945 -6.45334 28.4801C-6.3857 28.5657 -6.33558 28.6637 -6.30586 28.7687C-6.27615 28.8736 -6.2674 28.9834 -6.28014 29.0917C-6.29287 29.2001 -6.32683 29.3048 -6.38007 29.4ZM38.8899 47.11C38.7807 47.3031 38.5995 47.4451 38.3859 47.505C38.1723 47.565 37.9437 47.538 37.7499 47.43L1.51992 27.14C1.42417 27.0887 1.33958 27.0189 1.27104 26.9346C1.20251 26.8503 1.15141 26.7532 1.1207 26.649C1.09 26.5448 1.08031 26.4355 1.09219 26.3276C1.10407 26.2196 1.1373 26.115 1.18993 26.02L11.8699 6.6C11.9775 6.40523 12.1579 6.26109 12.3717 6.19922C12.5854 6.13735 12.8149 6.16281 13.0099 6.27L49.2399 26.56C49.4321 26.6675 49.5743 26.8462 49.636 27.0575C49.6977 27.2689 49.674 27.496 49.5699 27.69L38.8899 47.11ZM56.8899 31.79L46.1899 51.2C46.0807 51.3931 45.8995 51.5351 45.6859 51.595C45.4723 51.655 45.2437 51.628 45.0499 51.52L43.5699 50.69C43.3778 50.5825 43.2356 50.4038 43.1739 50.1925C43.1121 49.9811 43.1359 49.754 43.2399 49.56L53.9199 30.14C54.0292 29.9469 54.2104 29.8049 54.424 29.745C54.6375 29.685 54.8661 29.712 55.0599 29.82L56.5599 30.66C56.6552 30.7131 56.739 30.7845 56.8067 30.8701C56.8743 30.9557 56.9244 31.0537 56.9541 31.1587C56.9839 31.2636 56.9926 31.3734 56.9799 31.4817C56.9671 31.59 56.9332 31.6948 56.8799 31.79H56.8899ZM60.0999 26C60.0476 26.0961 59.9769 26.1809 59.8917 26.2495C59.8065 26.3182 59.7086 26.3693 59.6035 26.4C59.4985 26.4307 59.3885 26.4403 59.2798 26.4283C59.171 26.4162 59.0657 26.3829 58.9699 26.33L57.4599 25.48C57.3647 25.4269 57.2808 25.3555 57.2132 25.2699C57.1455 25.1843 57.0954 25.0863 57.0657 24.9813C57.036 24.8764 57.0272 24.7666 57.04 24.6583C57.0527 24.5499 57.0867 24.4452 57.1399 24.35L68.2899 4C68.343 3.90343 68.4149 3.8184 68.5012 3.74989C68.5876 3.68138 68.6867 3.63075 68.7928 3.60096C68.899 3.57117 69.0099 3.56282 69.1193 3.57639C69.2287 3.58996 69.3343 3.62518 69.4299 3.68L70.9499 4.53C71.0462 4.58215 71.131 4.65304 71.1994 4.73848C71.2678 4.82393 71.3184 4.92221 71.3482 5.02752C71.378 5.13283 71.3865 5.24305 71.373 5.35168C71.3596 5.4603 71.3245 5.56514 71.2699 5.66L60.0999 26ZM115.92 30.73L104.77 51C104.662 51.1948 104.482 51.3389 104.268 51.4008C104.054 51.4626 103.825 51.4372 103.63 51.33L64.7799 29.53C64.6847 29.4769 64.6008 29.4055 64.5332 29.3199C64.4655 29.2343 64.4154 29.1363 64.3857 29.0313C64.356 28.9264 64.3472 28.8166 64.36 28.7083C64.3727 28.5999 64.4067 28.4952 64.4599 28.4L75.6299 8.13C75.7392 7.93694 75.9204 7.79494 76.134 7.73499C76.3475 7.67503 76.5762 7.702 76.7699 7.81L115.6 29.55C115.79 29.6592 115.93 29.8386 115.99 30.0498C116.05 30.261 116.025 30.4872 115.92 30.68V30.73ZM119.14 24.89C119.031 25.0831 118.849 25.2251 118.636 25.285C118.422 25.345 118.194 25.318 118 25.21L79.1699 3.42C79.0747 3.36686 78.9908 3.29546 78.9232 3.2099C78.8555 3.12433 78.8054 3.02627 78.7757 2.92133C78.746 2.81638 78.7372 2.7066 78.75 2.59828C78.7627 2.48995 78.7967 2.38519 78.8499 2.29L89.0699 -16.25C89.1775 -16.4448 89.3579 -16.5889 89.5717 -16.6508C89.7854 -16.7127 90.015 -16.6872 90.2099 -16.58L129 5.16C129.095 5.21217 129.178 5.28263 129.246 5.3673C129.314 5.45197 129.364 5.54917 129.393 5.65331C129.423 5.75744 129.432 5.86644 129.419 5.974C129.407 6.08156 129.373 6.18557 129.32 6.28L119.14 24.89ZM174.89 30.89C175.08 30.9992 175.22 31.1786 175.28 31.3898C175.34 31.601 175.315 31.8272 175.21 32.02L165 50.53C164.891 50.7231 164.709 50.8651 164.496 50.925C164.282 50.985 164.054 50.958 163.86 50.85L123.81 28.42C123.62 28.3108 123.479 28.1314 123.42 27.9202C123.36 27.709 123.385 27.4828 123.49 27.29L133.7 8.74C133.752 8.6439 133.823 8.5591 133.908 8.49045C133.993 8.4218 134.091 8.37068 134.196 8.34001C134.301 8.30934 134.411 8.29973 134.52 8.31175C134.629 8.32376 134.734 8.35715 134.83 8.41L174.89 30.89Z" fill="white"/>
</g>
<defs>
<clipPath id="clip0_9546_204052">
<rect width="72" height="46" rx="4" fill="white"/>
</clipPath>
</defs>
</svg>
